<svg xmlns="http://www.w3.org/2000/svg" viewBox="0 0 151 124.35"><defs><style>.cls-1{fill:#0b0b0b;}</style></defs><title>Asset 2</title><g id="Layer_2" data-name="Layer 2"><g id="Layer_1-2" data-name="Layer 1"><path class="cls-1" d="M120.8,54.41V70H151V54.41Zm-15.1,51.37c7.25,5.52,16.69,12.82,24.16,18.57,3-4.11,6-8.31,9.06-12.43-7.47-5.75-16.91-13.06-24.16-18.65C111.74,97.46,108.72,101.66,105.7,105.78Zm33.22-93.34c-3-4.12-6-8.32-9.06-12.44C122.39,5.75,113,13.06,105.7,18.65c3,4.12,6,8.32,9.06,12.44C122,25.49,131.45,18.26,138.92,12.44ZM15.1,38.86A15.38,15.38,0,0,0,0,54.41V70A15.37,15.37,0,0,0,15.1,85.49h7.55v31.09h15.1V85.49H45.3l37.75,23.32V15.54L45.3,38.86Zm86.83,23.32a35.26,35.26,0,0,0-11.33-26v52A35,35,0,0,0,101.93,62.18Z"/></g></g></svg>