<svg xmlns="http://www.w3.org/2000/svg" viewBox="0 0 578.5 157.71"><defs><style>.b22982d0-4418-43c3-9504-faefeb84d6a3{fill:#f47036;}</style></defs><title>Asset 4</title><g id="a098065b-dd04-47e2-b62e-cb24a6c21f28" data-name="Layer 2"><g id="f3a5bb9c-7395-4d42-b419-3478c1a8018d" data-name="Layer 1"><path class="b22982d0-4418-43c3-9504-faefeb84d6a3" d="M556.39,38.69V49.74H578.5V38.69Zm-11,36.53c5.3,3.93,12.21,9.12,17.68,13.21,2.22-2.93,4.43-5.91,6.64-8.84C564.18,75.5,557.28,70.3,552,66.32,549.76,69.31,547.55,72.29,545.34,75.22ZM569.66,8.84C567.45,5.91,565.24,2.93,563,0c-5.47,4.09-12.38,9.29-17.68,13.26,2.21,2.93,4.42,5.92,6.63,8.85C557.28,18.13,564.18,13,569.66,8.84ZM479,27.64a11.08,11.08,0,0,0-11.05,11V49.74A11.09,11.09,0,0,0,479,60.8h5.53V82.91h11V60.8h5.53l27.64,16.58V11.05L501.12,27.64Zm63.56,16.58a24.75,24.75,0,0,0-8.29-18.52v37A24.54,24.54,0,0,0,542.57,44.22Z"/><path class="b22982d0-4418-43c3-9504-faefeb84d6a3" d="M49.29,141.2c13.56,0,25.11-4.84,32.78-13.8L72.16,118a28.7,28.7,0,0,1-22,9.79c-17.09,0-29.48-12-29.48-29s12.39-29,29.48-29a29,29,0,0,1,22,9.67l9.91-9.31c-7.67-9-19.22-13.8-32.67-13.8C24.05,56.3,5.19,74.11,5.19,98.75S24.05,141.2,49.29,141.2Zm72-.36c19.58,0,33.61-13.44,33.61-32.3s-14-32.19-33.61-32.19c-19.33,0-33.48,13.32-33.48,32.19S102,140.84,121.33,140.84Zm0-12.61c-10.61,0-18.63-7.67-18.63-19.69s8-19.69,18.63-19.69,18.75,7.66,18.75,19.69S132.06,128.23,121.33,128.23Zm83.43-51.88c-9.2,0-16.86,3.06-21.7,8.84V77.05H169v63h14.74V108.18c0-12.61,7.08-19,17.57-19,9.43,0,15,5.42,15,16.62V140h14.74V103.94C231.05,85,219.85,76.35,204.76,76.35Zm70.58-12.74a14.46,14.46,0,0,1,8.13,2.6l4.13-11.09c-3.3-2.36-8.25-3.42-13.32-3.42-14.62,0-22.52,8.61-22.52,21.82v4H241.38V89.32h10.38V140h14.73V89.32h16.87V77.53H266V73.75C266,67,269.21,63.61,275.34,63.61Zm76.21,45.28c0-19.69-13.45-32.54-31.84-32.54-18.75,0-32.54,13.44-32.54,32.19s13.68,32.3,34.78,32.3c10.85,0,19.69-3.53,25.35-10.25l-7.9-9.08c-4.48,4.6-10,6.84-17.1,6.84-11,0-18.63-5.9-20.39-15.1h49.4C351.43,111.84,351.55,110.07,351.55,108.89ZM319.71,88.14c9.67,0,16.63,6.25,17.81,15.33H301.79C303.2,94.27,310.16,88.14,319.71,88.14Zm65.45,52.7c17.69,0,28.53-7.66,28.53-19.45,0-24.64-38.91-13.32-38.91-26.06,0-4.13,4.25-7.07,13.21-7.07A34.52,34.52,0,0,1,406,93l5.66-11.2c-5.66-3.42-15.21-5.42-23.58-5.42-17,0-27.71,7.78-27.71,19.69,0,25.11,38.91,13.79,38.91,25.82,0,4.36-3.89,7-13.21,7a42.4,42.4,0,0,1-21.93-6.25l-5.66,11.2C364.17,137.78,374.67,140.84,385.16,140.84Zm60.68,0c17.69,0,28.54-7.66,28.54-19.45,0-24.64-38.91-13.32-38.91-26.06,0-4.13,4.24-7.07,13.2-7.07a34.5,34.5,0,0,1,18,4.71l5.66-11.2c-5.66-3.42-15.21-5.42-23.58-5.42-17,0-27.71,7.78-27.71,19.69,0,25.11,38.91,13.79,38.91,25.82,0,4.36-3.89,7-13.2,7a42.47,42.47,0,0,1-21.94-6.25l-5.66,11.2C424.85,137.78,435.35,140.84,445.84,140.84Z"/><path class="b22982d0-4418-43c3-9504-faefeb84d6a3" d="M0,151.81H477.44v5.9H0Z"/></g></g></svg>