<?xml version="1.0" encoding="utf-8"?>
<!-- Generator: Adobe Illustrator 23.0.1, SVG Export Plug-In . SVG Version: 6.00 Build 0)  -->
<svg version="1.1" id="Layer_1" xmlns="http://www.w3.org/2000/svg" xmlns:xlink="http://www.w3.org/1999/xlink" x="0px" y="0px"
	 viewBox="0 0 151 124.3" style="enable-background:new 0 0 151 124.3;" xml:space="preserve">
<style type="text/css">
	.st0{fill:#0B0B0B;}
</style>
<title>Asset 2</title>
<g>
	<g id="Layer_1-2">
		<path class="st0" d="M120.8,54.4V70H151V54.4H120.8z M105.7,105.8c7.2,5.5,16.7,12.8,24.2,18.6c3-4.1,6-8.3,9.1-12.4
			c-7.5-5.8-16.9-13.1-24.2-18.7C111.7,97.5,108.7,101.7,105.7,105.8z M138.9,12.4c-3-4.1-6-8.3-9.1-12.4
			c-7.5,5.7-16.9,13.1-24.2,18.6c3,4.1,6,8.3,9.1,12.4C122,25.5,131.4,18.3,138.9,12.4L138.9,12.4z M15.1,38.9C6.6,39-0.1,46,0,54.4
			V70c-0.1,8.4,6.7,15.3,15.1,15.5h7.6v31.1h15.1V85.5h7.5l37.8,23.3V15.5L45.3,38.9H15.1z M101.9,62.2c0-9.9-4.1-19.3-11.3-26v52
			C97.9,81.5,102,72.1,101.9,62.2z"/>
	</g>
</g>
</svg>
