<svg xmlns="http://www.w3.org/2000/svg" viewBox="0 0 48 48"><defs><style>.cls-1{fill:none;}.cls-2{fill:#313030;}.cls-3{fill:#d6ccc1;}</style></defs><title>Asset 2</title><g id="Layer_2" data-name="Layer 2"><g id="Layer_1-2" data-name="Layer 1"><path class="cls-1" d="M0,0H48V48H0Z"/><path class="cls-2" d="M24,4A20,20,0,1,0,44,24,20,20,0,0,0,24,4Zm0,29a9,9,0,1,1,9-9A9,9,0,0,1,24,33Zm0-11a2,2,0,1,0,2,2A2,2,0,0,0,24,22Z"/><path class="cls-3" d="M16.45,11.75a14.27,14.27,0,0,0-4.7,4.7.69.69,0,0,1-1.08.15l-.45-.45a.7.7,0,0,1-.11-.86,16.63,16.63,0,0,1,5.18-5.18.7.7,0,0,1,.86.11l.45.45A.69.69,0,0,1,16.45,11.75Z"/></g></g></svg>