<svg xmlns="http://www.w3.org/2000/svg" viewBox="0 0 40 40"><defs><style>.cls-1{fill:#f47036;}</style></defs><title>Asset 2</title><g id="Layer_2" data-name="Layer 2"><g id="Layer_1-2" data-name="Layer 1"><path class="cls-1" d="M20,18a2,2,0,1,0,2,2A2,2,0,0,0,20,18Zm0,0a2,2,0,1,0,2,2A2,2,0,0,0,20,18Zm0,0a2,2,0,1,0,2,2A2,2,0,0,0,20,18Zm0,0a2,2,0,1,0,2,2A2,2,0,0,0,20,18Zm0,0a2,2,0,1,0,2,2A2,2,0,0,0,20,18Zm0,0a2,2,0,1,0,2,2A2,2,0,0,0,20,18Zm0,0a2,2,0,1,0,2,2A2,2,0,0,0,20,18Zm0,0a2,2,0,1,0,2,2A2,2,0,0,0,20,18ZM20,0A20,20,0,1,0,40,20,20,20,0,0,0,20,0ZM10.47,9.22h0a14.18,14.18,0,0,0-2.71,3.22.69.69,0,0,1-1.08.15l0,0-.16-.16-.25-.25a.7.7,0,0,1-.11-.86,16.63,16.63,0,0,1,5.18-5.18.7.7,0,0,1,.86.11l.45.45a.69.69,0,0,1-.15,1.08c-.29.18-.58.37-.85.57l-1.11.88ZM20,29a9,9,0,1,1,9-9A9,9,0,0,1,20,29Zm0-11a2,2,0,1,0,2,2A2,2,0,0,0,20,18Zm0,0a2,2,0,1,0,2,2A2,2,0,0,0,20,18Zm0,0a2,2,0,1,0,2,2A2,2,0,0,0,20,18Zm0,0a2,2,0,1,0,2,2A2,2,0,0,0,20,18Zm0,0a2,2,0,1,0,2,2A2,2,0,0,0,20,18Zm0,0a2,2,0,1,0,2,2A2,2,0,0,0,20,18Zm0,0a2,2,0,1,0,2,2A2,2,0,0,0,20,18Zm0,0a2,2,0,1,0,2,2A2,2,0,0,0,20,18Zm0,0a2,2,0,1,0,2,2A2,2,0,0,0,20,18Z"/></g></g></svg>