<?xml version="1.0" encoding="utf-8"?>
<!-- Generator: Adobe Illustrator 23.0.1, SVG Export Plug-In . SVG Version: 6.00 Build 0)  -->
<svg version="1.1" id="Layer_1" xmlns="http://www.w3.org/2000/svg" xmlns:xlink="http://www.w3.org/1999/xlink" x="0px" y="0px"
	 viewBox="0 0 113.8 131.4" style="enable-background:new 0 0 113.8 131.4;" xml:space="preserve">
<style type="text/css">
	.st0{fill:#C9C9CA;}
</style>
<title>Asset 1</title>
<g>
	<g id="Layer_1-2">
		<path class="st0" d="M88.5,118.7c-1.7,0-3.3-0.3-4.8-0.9c-4.5-2.3-7.7-5.6-10.8-15c-3.2-9.9-9.3-14.5-15.1-19
			c-5-3.9-10.2-7.8-14.7-16c-3.2-5.7-5-12.1-5.2-18.6c0-17.5,14.2-31.6,31.6-31.6c17.5,0,31.6,14.2,31.6,31.6h12.7
			c0.3-24.2-19.1-44-43.2-44.3c-0.3,0-0.7,0-1,0C45.4,4.6,25.6,24,25.3,48.2c0,0.3,0,0.7,0,1c0.2,8.7,2.5,17.1,6.8,24.7
			c5.8,10.4,12.5,15.7,18,19.9c5.1,3.9,8.8,6.8,10.8,13c3.8,11.5,8.7,18,17.3,22.5c12.8,5.7,27.7,0,33.5-12.8
			c1.5-3.2,2.2-6.8,2.2-10.3h-12.6C101.1,113.1,95.5,118.7,88.5,118.7z M29.3,9l-9-9c-27.1,27.2-27.1,71.2,0,98.4l8.9-8.9
			C7.1,67.2,7.1,31.2,29.3,9z M53.7,49.2c0,8.7,7.1,15.8,15.8,15.8c8.7,0,15.8-7.1,15.8-15.8c0-8.7-7.1-15.8-15.8-15.8
			C60.8,33.4,53.7,40.5,53.7,49.2L53.7,49.2z"/>
	</g>
</g>
</svg>
