<svg xmlns="http://www.w3.org/2000/svg" viewBox="0 0 113.81 131.39"><defs><style>.cls-1{fill:#0b0b0b;}</style></defs><title>Asset 1</title><g id="Layer_2" data-name="Layer 2"><g id="Layer_1-2" data-name="Layer 1"><path class="cls-1" d="M88.52,118.74a12.07,12.07,0,0,1-4.81-.95c-4.49-2.34-7.65-5.56-10.81-15-3.22-9.87-9.29-14.48-15.11-19-5-3.86-10.18-7.84-14.67-16a39.61,39.61,0,0,1-5.18-18.59,31.61,31.61,0,0,1,63.22,0h12.65A43.75,43.75,0,0,0,69.55,4.93,43.75,43.75,0,0,0,25.29,49.19a52.24,52.24,0,0,0,6.77,24.66c5.75,10.43,12.52,15.68,18,19.92,5.12,3.92,8.79,6.76,10.81,13,3.79,11.51,8.66,18,17.26,22.45a25.32,25.32,0,0,0,35.66-23.08H101.16A12.68,12.68,0,0,1,88.52,118.74ZM29.34,9l-9-9a69.6,69.6,0,0,0,0,98.38l8.91-8.91A57,57,0,0,1,29.34,9Zm24.4,40.21A15.81,15.81,0,1,0,69.55,33.38,15.82,15.82,0,0,0,53.74,49.19Z"/></g></g></svg>