<svg xmlns="http://www.w3.org/2000/svg" viewBox="0 0 85.54 98.75"><defs><style>.e67517b1-5542-4ed7-b82b-0de91ed2c7fb{fill:#f47036;}</style></defs><title>Asset 6</title><g id="a7e5d587-a2af-47d2-9296-6ecfa5598eca" data-name="Layer 2"><g id="b8f39921-5b5f-4b87-aadb-787cdc7a03da" data-name="Layer 1"><path class="e67517b1-5542-4ed7-b82b-0de91ed2c7fb" d="M66.53,89.25a9,9,0,0,1-3.61-.72c-3.38-1.76-5.75-4.18-8.13-11.31-2.42-7.41-7-10.88-11.36-14.25-3.75-2.9-7.65-5.9-11-12a29.74,29.74,0,0,1-3.9-14A23.76,23.76,0,0,1,76,37h9.51A32.88,32.88,0,0,0,52.27,3.71,32.88,32.88,0,0,0,19,37a39.33,39.33,0,0,0,5.08,18.54c4.33,7.84,9.41,11.78,13.55,15,3.85,3,6.6,5.09,8.12,9.75,2.85,8.65,6.51,13.49,13,16.87a19,19,0,0,0,26.8-17.35H76A9.53,9.53,0,0,1,66.53,89.25ZM22.05,6.75,15.3,0a52.32,52.32,0,0,0,0,73.94l6.7-6.7a42.78,42.78,0,0,1,.05-60.49ZM40.39,37A11.88,11.88,0,1,0,52.27,25.09,11.89,11.89,0,0,0,40.39,37Z"/></g></g></svg>