<svg xmlns="http://www.w3.org/2000/svg" viewBox="0 0 519.86 231.31"><defs><style>.f23a108c-6412-4047-8c23-c9800edc219a{fill:#0b0b0b;}</style></defs><title>Asset 3</title><g id="a6d59107-c73f-4c4f-aad6-324da4e3e45d" data-name="Layer 2"><g id="ead4d765-3ee4-403e-9bb3-665beb3c8f5d" data-name="Layer 1"><path class="f23a108c-6412-4047-8c23-c9800edc219a" d="M495.4,114.86a11.62,11.62,0,0,1-4.65-.92c-4.34-2.26-7.4-5.38-10.46-14.55-3.12-9.55-9-14-14.62-18.35-4.83-3.73-9.84-7.59-14.19-15.48a38.3,38.3,0,0,1-5-18,30.58,30.58,0,0,1,61.16,0h12.23a42.81,42.81,0,0,0-85.62,0,50.58,50.58,0,0,0,6.54,23.85c5.57,10.1,12.11,15.17,17.43,19.27,5,3.79,8.5,6.54,10.46,12.54,3.67,11.13,8.38,17.37,16.7,21.71a24.48,24.48,0,0,0,34.49-22.32H507.63A12.27,12.27,0,0,1,495.4,114.86ZM438.15,8.68,429.47,0a67.31,67.31,0,0,0,0,95.16l8.62-8.62a55.07,55.07,0,0,1,.06-77.86Zm23.61,38.9a15.29,15.29,0,1,0,15.29-15.29A15.3,15.3,0,0,0,461.76,47.58Z"/><path class="f23a108c-6412-4047-8c23-c9800edc219a" d="M14.72,207.82H92.38V190.6H35.07V98.22H14.72Zm101.71-97.38c7.36,0,12.53-5.33,12.53-12.22C129,91.8,123.63,87,116.43,87S103.9,92.12,103.9,98.69,109.23,110.44,116.43,110.44Zm-9.86,97.38h19.57V124.21H106.57Zm71.09,1.1c23.48,0,37.89-10.18,37.89-25.84,0-32.72-51.67-17.69-51.67-34.6,0-5.48,5.64-9.39,17.54-9.39a45.72,45.72,0,0,1,24,6.26l7.52-14.87c-7.52-4.54-20.2-7.21-31.32-7.21-22.54,0-36.79,10.34-36.79,26.15,0,33.35,51.67,18.32,51.67,34.29,0,5.79-5.17,9.24-17.54,9.24-10.49,0-21.76-3.45-29.12-8.3l-7.52,14.87C149.79,204.85,163.72,208.92,177.66,208.92Zm99.52-19.57a17.58,17.58,0,0,1-11,3.44c-7.51,0-11.58-4.38-11.58-12.52V140.5H277V124.84H254.64v-19.1H235.07v19.1H221.29V140.5h13.78v40.24c0,18.47,10.49,28.18,28.8,28.18,7.05,0,14.1-1.88,18.79-5.64Zm97.43-22.86c0-26.15-17.85-43.22-42.28-43.22-24.89,0-43.21,17.85-43.21,42.75s18.16,42.9,46.19,42.9c14.4,0,26.15-4.7,33.66-13.62l-10.49-12.06c-6,6.11-13.31,9.08-22.7,9.08-14.56,0-24.74-7.83-27.09-20h65.6C374.45,170.4,374.61,168.05,374.61,166.49Zm-42.28-27.56c12.84,0,22.08,8.3,23.65,20.36H308.54C310.41,147.07,319.65,138.93,332.33,138.93Zm108.52-15.66c-12.21,0-22.39,4.07-28.81,11.75V124.21H393.41v83.61H413V165.55c0-16.76,9.39-25.21,23.33-25.21,12.52,0,19.88,7.2,19.88,22.08v45.4h19.57V159.91C475.76,134.7,460.89,123.27,440.85,123.27Z"/><path class="f23a108c-6412-4047-8c23-c9800edc219a" d="M0,223.48H487.82v7.83H0Z"/></g></g></svg>