<svg xmlns="http://www.w3.org/2000/svg" viewBox="0 0 180.33 179.89"><defs><style>.cls-1{fill:#f47036;}.cls-2{fill:#0b0b0b;}</style></defs><title>Asset 4</title><g id="Layer_2" data-name="Layer 2"><g id="Layer_1-2" data-name="Layer 1"><polygon class="cls-1" points="54.11 90.25 30.78 81.23 24.62 41.62 65.55 7.5 85.58 0.9 89.98 0.02 90.42 0.02 102.53 3.54 148.75 40.08 163.27 77.71 149.63 81.23 126.3 90.25 97.03 40.08 60.93 58.56 54.11 90.25"/><path class="cls-2" d="M0,90.21,30.7,81.3C30.7,41.88,57,16.57,90,0A90.18,90.18,0,0,0,0,90.21ZM90.34,0c33,16.57,59.29,41.88,59.29,81.3l30.7,8.91A90.18,90.18,0,0,0,90.34,0Z"/><path class="cls-2" d="M126.25,90.21,99.08,83.53v75c0,11.85-10,21.39-22.28,21.39s-22.27-9.54-22.27-21.39v-5.34H72.35v5.34a4.32,4.32,0,0,0,4.45,4.28,4.38,4.38,0,0,0,4.46-4.28v-75L54.08,90.21c.05-39.47,14.66-73.64,36-90.21h.09C111.59,16.57,126.25,50.79,126.25,90.21Z"/></g></g></svg>