<svg xmlns="http://www.w3.org/2000/svg" viewBox="0 0 516.02 513"><defs><style>.cls-1{fill:none;}</style></defs><title>Asset 5</title><g id="Layer_2" data-name="Layer 2"><g id="Layer_1-2" data-name="Layer 1"><path d="M1.75,257.26l90.07-25.4C91.82,119.42,164.36,47.26,258.37,0,116.59.25,1.75,115.36,1.75,257.26ZM259.39,0C353.4,47.26,426,119.42,426,231.86L516,257.26C516,115.36,401.17.25,259.39,0Z"/><path d="M361.79,257.26l-77.5-19V452c0,33.8-28.46,61-63.52,61s-63.52-27.18-63.52-61V436.78h50.82V452c0,6.86,5.59,12.2,12.7,12.2a12.48,12.48,0,0,0,12.7-12.2V238.08L156,257.26C156.1,144.7,197.78,47.26,258.76,0H259C320,47.26,361.79,144.83,361.79,257.26Z"/><path class="cls-1" d="M284.29,238.21V452c0,33.8-28.46,61-63.52,61s-63.52-27.18-63.52-61V436.78h50.82V452c0,6.86,5.59,12.2,12.7,12.2a12.48,12.48,0,0,0,12.7-12.2V238.08L156,257.26C156.1,144.7,197.78,47.26,258.76,0H259c61,47.26,102.78,144.83,102.78,257.26Z"/><path d="M411.44,257.28H514.21C514.21,115.35,399.4.18,257.64,0,351.61,47.25,411.44,144.81,411.44,257.28ZM256.57,0C114.81.18,0,115.35,0,257.28H102.77C102.77,144.81,162.6,47.25,256.57,0Zm.71,0h-.36C196,47.25,154.33,144.63,154.15,257.28h205.9C360.05,144.81,318.19,47.25,257.28,0Z"/></g></g></svg>