<?xml version="1.0" encoding="utf-8"?>
<!-- Generator: Adobe Illustrator 23.0.1, SVG Export Plug-In . SVG Version: 6.00 Build 0)  -->
<svg version="1.1" id="Layer_1" xmlns="http://www.w3.org/2000/svg" xmlns:xlink="http://www.w3.org/1999/xlink" x="0px" y="0px"
	 viewBox="0 0 516 513" style="enable-background:new 0 0 516 513;" xml:space="preserve">
<style type="text/css">
	.st0{fill:#F47036;}
</style>
<title>Asset 5</title>
<g>
	<g id="Layer_1-2">
		<path class="st0" d="M1.8,257.3l90.1-25.4C91.8,119.4,164.4,47.3,258.4,0C116.6,0.2,1.8,115.4,1.8,257.3z M259.4,0
			C353.4,47.3,426,119.4,426,231.9l90,25.4C516,115.4,401.2,0.2,259.4,0z"/>
		<path class="st0" d="M361.8,257.3l-77.5-19V452c0,33.8-28.5,61-63.5,61s-63.5-27.2-63.5-61v-15.2h50.8V452
			c0,6.9,5.6,12.2,12.7,12.2c6.9,0.1,12.5-5.3,12.7-12.2V238.1L156,257.3c0.1-112.6,41.8-210,102.8-257.3h0.2
			C320,47.3,361.8,144.8,361.8,257.3z"/>
		<path class="st0" d="M284.3,238.2V452c0,33.8-28.5,61-63.5,61s-63.5-27.2-63.5-61v-15.2h50.8V452c0,6.9,5.6,12.2,12.7,12.2
			c6.9,0.1,12.5-5.3,12.7-12.2V238.1L156,257.3c0.1-112.6,41.8-210,102.8-257.3h0.2c61,47.3,102.8,144.8,102.8,257.3L284.3,238.2z"
			/>
		<path class="st0" d="M411.4,257.3h102.8C514.2,115.3,399.4,0.2,257.6,0C351.6,47.2,411.4,144.8,411.4,257.3z M256.6,0
			C114.8,0.2,0,115.3,0,257.3h102.8C102.8,144.8,162.6,47.2,256.6,0z M257.3,0h-0.4C196,47.2,154.3,144.6,154.1,257.3H360
			C360,144.8,318.2,47.2,257.3,0z"/>
	</g>
</g>
</svg>
