<?xml version="1.0" encoding="utf-8"?>
<!-- Generator: Adobe Illustrator 23.0.1, SVG Export Plug-In . SVG Version: 6.00 Build 0)  -->
<svg version="1.1" id="Layer_1" xmlns="http://www.w3.org/2000/svg" xmlns:xlink="http://www.w3.org/1999/xlink" x="0px" y="0px"
	 viewBox="0 0 516 513" style="enable-background:new 0 0 516 513;" xml:space="preserve">
<style type="text/css">
	.st0{fill:#878787;}
</style>
<title>Asset 5</title>
<g>
	<g id="Layer_1-2">
		<path class="st0" d="M258.1,0c-0.2,0-0.3,0-0.5,0c-0.1,0-0.2,0-0.3,0c-0.1,0-0.3,0-0.4,0c-0.1,0-0.2,0-0.3,0h0
			c-10.3,5.2-20.2,11-29.7,17.3c8.8-5.3,18-10.4,27.3-15.2l0,0c1.2-0.6,2.3-1.2,3.5-1.8c0.1-0.1,0.2-0.1,0.3-0.1
			c0.1-0.1,0.2-0.1,0.4-0.2h0c0,0,0,0,0,0H258.1z M259.4,0C259.4,0,259.4,0,259.4,0L259.4,0c140.8,1.2,254.5,115.6,254.8,256.8
			l1.8,0.5C516,115.4,401.2,0.2,259.4,0z"/>
		<path class="st0" d="M361.8,257.3l-1.8-0.4C359.9,145,318.5,47.9,258,0.6c0.1-0.1,0.2-0.2,0.3-0.2c0.1-0.1,0.3-0.2,0.5-0.4l0,0
			h0.2c0,0,0,0,0,0c0.9,0.7,1.7,1.4,2.6,2C321.2,50.1,361.8,146.4,361.8,257.3z"/>
		<path class="st0" d="M361.8,257.3l-1.8-0.4C359.9,145,318.5,47.9,258,0.6c0.1-0.1,0.2-0.2,0.3-0.2c0.1-0.1,0.3-0.2,0.5-0.4l0,0
			h0.2c0,0,0,0,0,0c0.9,0.7,1.7,1.4,2.6,2C321.2,50.1,361.8,146.4,361.8,257.3z"/>
		<path class="st0" d="M259,0c-0.1,0-0.2,0-0.2,0c-0.1,0-0.3,0-0.4,0h0c-0.1,0-0.2,0-0.2,0h-0.6c0,0,0,0,0,0
			c0.1,0.1,0.3,0.1,0.4,0.2c0.1,0.1,0.2,0.1,0.3,0.2c1.1,0.6,2.2,1.1,3.3,1.7C260.8,1.4,259.9,0.7,259,0z M0,257.3h1.8
			C1.8,116,115.6,1.2,256.6,0h0c0,0,0,0,0,0C114.8,0.2,0,115.3,0,257.3z M257.7,0.3c-0.1-0.1-0.3-0.2-0.4-0.3l0,0h-0.4c0,0,0,0,0,0
			c-0.9,0.7-1.8,1.4-2.7,2.1l0,0c-59.4,48-99.9,144.1-100.1,255.2h1.9c0.1-112.1,41.5-209.2,102-256.7C258,0.5,257.8,0.4,257.7,0.3z
			"/>
		<path class="st0" d="M256.6,0c-10.3,5.2-20.2,11-29.7,17.3c0,0,0,0,0,0c-76.7,51.5-124.1,139.8-124.1,240H1.8
			C1.8,116,115.6,1.2,256.6,0z"/>
		<path class="st0" d="M514.2,256.8v0.5H411.4c0-110.9-58.1-207.3-149.8-255.2c-0.9-0.7-1.7-1.4-2.6-2c0.1,0,0.3,0,0.4,0h0
			C400.2,1.2,513.9,115.6,514.2,256.8z"/>
		<path class="st0" d="M360,256.9v0.4h-75.7V452c0,33.8-28.5,61-63.5,61s-63.5-27.2-63.5-61v-15.2h50.8V452
			c0,6.9,5.6,12.2,12.7,12.2c6.9,0.1,12.5-5.3,12.7-12.2V257.3H156c0.1-112.1,41.5-209.2,102-256.7C318.5,47.9,359.9,145,360,256.9z
			"/>
	</g>
</g>
</svg>
