<svg xmlns="http://www.w3.org/2000/svg" viewBox="0 0 791.63 163.4"><defs><style>.f22cc827-f48e-4915-976a-ba2b633cff03{fill:#fff;fill-opacity:0.5;}.ae44e3d1-5d6a-4ccd-b619-1e6da3ea6dbe{fill:#f47036;}</style></defs><title>Asset 2</title><g id="ff5fe7d2-04ac-4e2b-bbb3-760bd9266d25" data-name="Layer 2"><g id="b510065f-c1f8-45f1-893b-6483bea60cbe" data-name="Layer 1"><path class="f22cc827-f48e-4915-976a-ba2b633cff03" d="M15.92,161.44V149.68l15.2-2.61V75l-15.2-2.62V60.51H47.54l1.31,15A36.33,36.33,0,0,1,61.44,63.12a33.65,33.65,0,0,1,17.35-4.48q16.32,0,25.28,9.61t9,29.48v49.34l15.21,2.61v11.76H79.44V149.68l15.21-2.61v-49q0-13.34-5.32-18.94t-16-5.59A26.15,26.15,0,0,0,59.2,77.39a28.09,28.09,0,0,0-9.7,10.45v59.23l15.21,2.61v11.76Zm169.49,2q-14,0-24.16-6.53a43.73,43.73,0,0,1-15.58-18.19,61.6,61.6,0,0,1-5.5-26.59v-2q0-14.92,5.5-26.49a43.5,43.5,0,0,1,15.58-18.28q10.17-6.63,24-6.63,14,0,24.07,6.63A43.41,43.41,0,0,1,225,83.45q5.5,11.58,5.5,26.59v2q0,15-5.5,26.68a43.11,43.11,0,0,1-15.58,18.1Q199.32,163.39,185.41,163.4Zm0-14.37q8.76,0,14.64-4.76a29.23,29.23,0,0,0,9-13.15,55.09,55.09,0,0,0,3.08-19v-2A54.33,54.33,0,0,0,209,91.1a28.58,28.58,0,0,0-9-13.15q-6-4.85-14.83-4.85A22.65,22.65,0,0,0,170.48,78a28.57,28.57,0,0,0-8.95,13.15,55.82,55.82,0,0,0-3,18.94v2a56.6,56.6,0,0,0,3,19,29.21,29.21,0,0,0,8.95,13.15A23.47,23.47,0,0,0,185.41,149Zm91.32,12.41L250.15,73.66l-11.29-1.31V60.51h41.69V72.35l-12.4,2.06,13.9,50.27,3.17,11.94h.56l4.1-11.94L311.8,60.51h15.49l20.89,64,4.48,14.18h.56l4.38-14.18,14.09-50.19-12.69-2V60.51h40.77V72.35l-11.2,1.59-26.12,87.5H345L324.58,100.8l-4.85-16.23-.56.1-4.75,16.13-21.93,60.64Zm130.13,0V149.68l15.2-2.61V30.38l-15.2-2.61V15.92h33.58v58a37,37,0,0,1,12.78-11.29,35.26,35.26,0,0,1,16.79-4q16.23,0,25.18,9.7t9,29.85v48.88l15.2,2.61v11.76H470.57V149.68l15.2-2.61V98q0-12.51-5.41-18.47t-15.95-6A27,27,0,0,0,450.6,77.2a29.73,29.73,0,0,0-10.16,9.71v60.16l15.2,2.61v11.76Zm169.58,2q-14,0-24.35-6.35a43.28,43.28,0,0,1-16-17.81q-5.59-11.39-5.6-26.31v-4.1a54.74,54.74,0,0,1,5.88-25.66,47.57,47.57,0,0,1,15.76-17.9,37.92,37.92,0,0,1,21.55-6.63q13.62,0,22.76,5.6A35,35,0,0,1,610.3,80Q615,90.08,615,103.79v11.47H549.48l-.28.47A46.62,46.62,0,0,0,552.56,133a27.53,27.53,0,0,0,9.33,11.75A24.53,24.53,0,0,0,576.44,149a46.57,46.57,0,0,0,16.32-2.61A38.24,38.24,0,0,0,605,139.05L612.16,151a44.43,44.43,0,0,1-14.36,8.86Q588.93,163.39,576.44,163.4ZM550,100.9h46.55V98.47a30.73,30.73,0,0,0-2.61-13,19.85,19.85,0,0,0-7.65-9.05q-5-3.36-12.69-3.36a18.63,18.63,0,0,0-11.19,3.64,27.17,27.17,0,0,0-8.31,9.7,41.23,41.23,0,0,0-4.29,14Zm79.1,60.54V149.68l15.21-2.61V75l-15.21-2.62V60.51h31.62l1.59,12.87.19,1.77A35.39,35.39,0,0,1,673.08,63a24.76,24.76,0,0,1,14.46-4.39,32.11,32.11,0,0,1,5.87.56,26.48,26.48,0,0,1,4.39.93L695.37,77.2l-12.78-.74a17.46,17.46,0,0,0-12.22,3.36,24.23,24.23,0,0,0-7.65,10.07v57.18l15.21,2.61v11.76Zm124,2q-14,0-24.35-6.35a43.28,43.28,0,0,1-16-17.81q-5.6-11.39-5.6-26.31v-4.1A54.74,54.74,0,0,1,713,83.17a47.65,47.65,0,0,1,15.76-17.9,38,38,0,0,1,21.55-6.63q13.62,0,22.76,5.6A35,35,0,0,1,787,80q4.66,10.08,4.66,23.79v11.47H726.15l-.28.47A46.82,46.82,0,0,0,729.23,133a27.6,27.6,0,0,0,9.33,11.75A24.53,24.53,0,0,0,753.11,149a46.57,46.57,0,0,0,16.32-2.61,38.24,38.24,0,0,0,12.22-7.37L788.84,151a44.59,44.59,0,0,1-14.37,8.86Q765.6,163.39,753.11,163.4Zm-26.4-62.5h46.55V98.47a30.73,30.73,0,0,0-2.61-13A19.85,19.85,0,0,0,763,76.46q-5-3.36-12.69-3.36a18.65,18.65,0,0,0-11.19,3.64,27,27,0,0,0-8.3,9.7,40.79,40.79,0,0,0-4.29,14Z"/><path class="ae44e3d1-5d6a-4ccd-b619-1e6da3ea6dbe" d="M0,145.52V133.76l15.2-2.61V59.05L0,56.43V44.59H31.62l1.31,15A36.33,36.33,0,0,1,45.52,47.2a33.65,33.65,0,0,1,17.35-4.48q16.32,0,25.28,9.61T97.1,81.81v49.34l15.21,2.61v11.76H63.52V133.76l15.21-2.61v-49q0-13.34-5.32-18.94t-16-5.59a26.15,26.15,0,0,0-14.09,3.82,28.09,28.09,0,0,0-9.7,10.45v59.23l15.21,2.61v11.76Zm169.49,2q-14,0-24.16-6.53a43.73,43.73,0,0,1-15.58-18.19,61.6,61.6,0,0,1-5.5-26.59v-2q0-14.93,5.5-26.49a43.5,43.5,0,0,1,15.58-18.28q10.17-6.63,24-6.63,14,0,24.07,6.63A43.41,43.41,0,0,1,209,67.53q5.51,11.58,5.5,26.59v2q0,15-5.5,26.68A43.11,43.11,0,0,1,193.46,141Q183.4,147.48,169.49,147.48Zm0-14.37q8.76,0,14.64-4.76a29.17,29.17,0,0,0,9-13.15,55.09,55.09,0,0,0,3.08-19v-2a54.33,54.33,0,0,0-3.08-18.94,28.58,28.58,0,0,0-9-13.15q-6-4.85-14.83-4.85A22.62,22.62,0,0,0,154.57,62a28.58,28.58,0,0,0-9,13.15,55.82,55.82,0,0,0-3,18.94v2a56.6,56.6,0,0,0,3,19,29.17,29.17,0,0,0,9,13.15A23.42,23.42,0,0,0,169.49,133.11Zm91.32,12.41L234.23,57.74l-11.29-1.31V44.59h41.7V56.43l-12.41,2.06,13.9,50.27,3.17,11.94h.56l4.1-11.94,21.92-64.17h15.49l20.89,64,4.48,14.18h.56l4.38-14.18,14.09-50.19-12.69-2V44.59h40.77V56.43L372.65,58l-26.12,87.5H329.09L308.66,84.88l-4.85-16.23-.56.1L298.5,84.88l-21.92,60.64Zm130.13,0V133.76l15.2-2.61V14.46l-15.2-2.61V0h33.58V58A37,37,0,0,1,437.3,46.73a35.26,35.26,0,0,1,16.79-4q16.23,0,25.18,9.7t9,29.85v48.88l15.2,2.61v11.76H454.65V133.76l15.2-2.61V82.09q0-12.51-5.41-18.47t-15.95-6a26.92,26.92,0,0,0-13.81,3.64A29.61,29.61,0,0,0,424.52,71v60.16l15.2,2.61v11.76Zm169.58,2q-14,0-24.35-6.35a43.28,43.28,0,0,1-16-17.81q-5.6-11.38-5.6-26.31v-4.1a54.67,54.67,0,0,1,5.88-25.65,47.52,47.52,0,0,1,15.76-17.91,37.92,37.92,0,0,1,21.55-6.63q13.62,0,22.76,5.6a35,35,0,0,1,13.9,15.76Q599,74.16,599,87.87V99.34H533.56l-.28.47a46.62,46.62,0,0,0,3.36,17.26A27.53,27.53,0,0,0,546,128.82a24.53,24.53,0,0,0,14.55,4.29,46.57,46.57,0,0,0,16.32-2.61,38.24,38.24,0,0,0,12.22-7.37l7.18,11.94a44.43,44.43,0,0,1-14.36,8.86Q573,147.47,560.52,147.48ZM534.12,85h46.55V82.55a30.73,30.73,0,0,0-2.61-13,19.85,19.85,0,0,0-7.65-9.05q-5-3.36-12.69-3.36a18.63,18.63,0,0,0-11.19,3.64,27,27,0,0,0-8.3,9.7,41,41,0,0,0-4.3,14Zm79.1,60.54V133.76l15.21-2.61V59.05l-15.21-2.62V44.59h31.62l1.59,12.87.19,1.77a35.39,35.39,0,0,1,10.54-12.12,24.76,24.76,0,0,1,14.46-4.39,32.11,32.11,0,0,1,5.87.56,26.48,26.48,0,0,1,4.39.93l-2.43,17.08-12.78-.75a17.46,17.46,0,0,0-12.22,3.36A24.23,24.23,0,0,0,646.8,74v57.18L662,133.76v11.76Zm124,2q-14,0-24.34-6.35a43.23,43.23,0,0,1-16.05-17.81q-5.59-11.38-5.6-26.31v-4.1a54.67,54.67,0,0,1,5.88-25.65,47.55,47.55,0,0,1,15.77-17.91,37.89,37.89,0,0,1,21.54-6.63q13.62,0,22.76,5.6a35,35,0,0,1,13.9,15.76q4.66,10.08,4.67,23.79V99.34H710.23l-.28.47a46.82,46.82,0,0,0,3.36,17.26,27.6,27.6,0,0,0,9.33,11.75,24.53,24.53,0,0,0,14.55,4.29,46.57,46.57,0,0,0,16.32-2.61,38.24,38.24,0,0,0,12.22-7.37l7.19,11.94a44.59,44.59,0,0,1-14.37,8.86Q749.69,147.47,737.19,147.48ZM710.79,85h46.55V82.55a30.73,30.73,0,0,0-2.61-13,19.85,19.85,0,0,0-7.65-9.05q-5-3.36-12.69-3.36a18.65,18.65,0,0,0-11.19,3.64,27,27,0,0,0-8.3,9.7,40.79,40.79,0,0,0-4.29,14Z"/></g></g></svg>