<svg xmlns="http://www.w3.org/2000/svg" viewBox="0 0 48 48"><defs><style>.cls-1{fill:none;}.cls-2{fill:#c9c9ca;}.cls-3{fill:#313030;}</style></defs><title>Asset 3</title><g id="Layer_2" data-name="Layer 2"><g id="Layer_1-2" data-name="Layer 1"><path class="cls-1" d="M0,0H48V48H0Z"/><path class="cls-2" d="M24,4A20,20,0,1,0,44,24,20,20,0,0,0,24,4Zm0,29a9,9,0,1,1,9-9A9,9,0,0,1,24,33Zm0-11a2,2,0,1,0,2,2A2,2,0,0,0,24,22Z"/><path class="cls-3" d="M13.06,35.52A15.72,15.72,0,0,1,8.1,24a16.15,16.15,0,0,1,.29-3l1,.18A15.07,15.07,0,0,0,9.1,24a14.77,14.77,0,0,0,4.64,10.8Z"/></g></g></svg>